<svg width="8" height="5" viewBox="0 0 8 5" fill="none" xmlns="http://www.w3.org/2000/svg">
<path d="M1.65979 0.166687C1.45351 0.166687 1.25568 0.248631 1.10982 0.394493C0.963956 0.540354 0.882011 0.738185 0.882011 0.944465V1.39596L4.16462 3.03747C4.23212 3.07121 4.30655 3.08878 4.38201 3.08878C4.45748 3.08878 4.5319 3.07121 4.5994 3.03747L7.88201 1.39635V0.944465C7.88201 0.738185 7.80007 0.540354 7.65421 0.394493C7.50834 0.248631 7.31051 0.166687 7.10423 0.166687H1.65979Z" fill="#334155"/>
<path d="M7.88201 2.04852L4.86034 3.55936C4.71183 3.63363 4.54806 3.67229 4.38201 3.67229C4.21596 3.67229 4.05219 3.63363 3.90368 3.55936L0.882011 2.04852V4.05558C0.882011 4.26186 0.963956 4.45969 1.10982 4.60555C1.25568 4.75141 1.45351 4.83336 1.65979 4.83336H7.10423C7.31051 4.83336 7.50834 4.75141 7.65421 4.60555C7.80007 4.45969 7.88201 4.26186 7.88201 4.05558V2.04852Z" fill="#334155"/>
</svg>
