<svg width="10" height="10" viewBox="0 0 10 10" fill="none" xmlns="http://www.w3.org/2000/svg">
<g clip-path="url(#clip0_309_158)">
<path d="M2.8125 1.25006V2.18756M7.1875 1.25006V2.18756M1.25 7.81256V3.12506C1.25 2.87642 1.34877 2.63796 1.52459 2.46215C1.7004 2.28633 1.93886 2.18756 2.1875 2.18756H7.8125C8.06114 2.18756 8.2996 2.28633 8.47541 2.46215C8.65123 2.63796 8.75 2.87642 8.75 3.12506V7.81256M1.25 7.81256C1.25 8.0612 1.34877 8.29966 1.52459 8.47547C1.7004 8.65129 1.93886 8.75006 2.1875 8.75006H7.8125C8.06114 8.75006 8.2996 8.65129 8.47541 8.47547C8.65123 8.29966 8.75 8.0612 8.75 7.81256M1.25 7.81256V4.68756C1.25 4.43892 1.34877 4.20046 1.52459 4.02465C1.7004 3.84883 1.93886 3.75006 2.1875 3.75006H7.8125C8.06114 3.75006 8.2996 3.84883 8.47541 4.02465C8.65123 4.20046 8.75 4.43892 8.75 4.68756V7.81256M5 5.31256H5.00333V5.31589H5V5.31256ZM5 6.25006H5.00333V6.25339H5V6.25006ZM5 7.18756H5.00333V7.19089H5V7.18756ZM4.0625 6.25006H4.06583V6.25339H4.0625V6.25006ZM4.0625 7.18756H4.06583V7.19089H4.0625V7.18756ZM3.125 6.25006H3.12833V6.25339H3.125V6.25006ZM3.125 7.18756H3.12833V7.19089H3.125V7.18756ZM5.9375 5.31256H5.94083V5.31589H5.9375V5.31256ZM5.9375 6.25006H5.94083V6.25339H5.9375V6.25006ZM5.9375 7.18756H5.94083V7.19089H5.9375V7.18756ZM6.875 5.31256H6.87833V5.31589H6.875V5.31256ZM6.875 6.25006H6.87833V6.25339H6.875V6.25006Z" stroke="#64748B" stroke-width="0.75" stroke-linecap="round" stroke-linejoin="round"/>
</g>
<defs>
<clipPath id="clip0_309_158">
<rect width="10" height="10" fill="white"/>
</clipPath>
</defs>
</svg>
