<svg width="10" height="10" viewBox="0 0 10 10" fill="none" xmlns="http://www.w3.org/2000/svg">
<g clip-path="url(#clip0_39_297)">
<path d="M7.99 0.901966C7.96705 0.788937 7.90573 0.687319 7.81643 0.614328C7.72712 0.541338 7.61534 0.501465 7.5 0.501465C7.38466 0.501465 7.27287 0.541338 7.18357 0.614328C7.09427 0.687319 7.03295 0.788937 7.01 0.901966L6.89 1.49797C6.8707 1.59478 6.82318 1.68372 6.75342 1.75356C6.68366 1.82341 6.59479 1.87105 6.498 1.89047L5.902 2.00947C5.78843 2.03193 5.68617 2.0931 5.61267 2.18256C5.53918 2.27201 5.499 2.38419 5.499 2.49997C5.499 2.61574 5.53918 2.72792 5.61267 2.81738C5.68617 2.90683 5.78843 2.96801 5.902 2.99047L6.498 3.10947C6.59488 3.1288 6.68386 3.17639 6.75372 3.24625C6.82357 3.3161 6.87117 3.40509 6.8905 3.50197L7.0095 4.09797C7.03196 4.21154 7.09314 4.3138 7.18259 4.38729C7.27204 4.46079 7.38423 4.50096 7.5 4.50096C7.61577 4.50096 7.72796 4.46079 7.81741 4.38729C7.90686 4.3138 7.96804 4.21154 7.9905 4.09797L8.1095 3.50197C8.12883 3.40509 8.17643 3.3161 8.24628 3.24625C8.31614 3.17639 8.40512 3.1288 8.502 3.10947L9.098 2.99047C9.21157 2.96801 9.31383 2.90683 9.38733 2.81738C9.46082 2.72792 9.501 2.61574 9.501 2.49997C9.501 2.38419 9.46082 2.27201 9.38733 2.18256C9.31383 2.0931 9.21157 2.03193 9.098 2.00947L8.502 1.89047C8.40512 1.87114 8.31614 1.82354 8.24628 1.75368C8.17643 1.68383 8.12883 1.59485 8.1095 1.49797L7.9905 0.901966H7.99ZM3.4745 2.84197C3.44139 2.7423 3.37773 2.65558 3.29256 2.59413C3.20739 2.53268 3.10503 2.4996 3 2.4996C2.89497 2.4996 2.79261 2.53268 2.70744 2.59413C2.62227 2.65558 2.55861 2.7423 2.5255 2.84197L2.184 3.86747C2.15946 3.94118 2.11808 4.00817 2.06314 4.06311C2.0082 4.11805 1.94122 4.15943 1.8675 4.18397L0.842 4.52547C0.742329 4.55858 0.655616 4.62224 0.594163 4.70741C0.53271 4.79258 0.499638 4.89494 0.499638 4.99997C0.499638 5.10499 0.53271 5.20735 0.594163 5.29252C0.655616 5.3777 0.742329 5.44135 0.842 5.47447L1.8675 5.81647C1.94116 5.84095 2.00812 5.88226 2.06305 5.93711C2.11799 5.99195 2.1594 6.05884 2.184 6.13247L2.5255 7.15797C2.55861 7.25764 2.62227 7.34435 2.70744 7.4058C2.79261 7.46726 2.89497 7.50033 3 7.50033C3.10503 7.50033 3.20739 7.46726 3.29256 7.4058C3.37773 7.34435 3.44139 7.25764 3.4745 7.15797L3.816 6.13247C3.84054 6.05875 3.88192 5.99176 3.93686 5.93682C3.99179 5.88188 4.05878 5.8405 4.1325 5.81597L5.158 5.47447C5.25767 5.44135 5.34438 5.3777 5.40584 5.29252C5.46729 5.20735 5.50036 5.10499 5.50036 4.99997C5.50036 4.89494 5.46729 4.79258 5.40584 4.70741C5.34438 4.62224 5.25767 4.55858 5.158 4.52547L4.1325 4.18397C4.05878 4.15943 3.99179 4.11805 3.93686 4.06311C3.88192 4.00817 3.84054 3.94118 3.816 3.86747L3.475 2.84197H3.4745ZM6.9745 6.84197C6.94139 6.7423 6.87773 6.65558 6.79256 6.59413C6.70739 6.53268 6.60503 6.4996 6.5 6.4996C6.39497 6.4996 6.29261 6.53268 6.20744 6.59413C6.12227 6.65558 6.05861 6.7423 6.0255 6.84197L5.9335 7.11747C5.90901 7.19113 5.86771 7.25808 5.81286 7.31302C5.75801 7.36795 5.69113 7.40936 5.6175 7.43397L5.342 7.52547C5.24233 7.55858 5.15562 7.62224 5.09416 7.70741C5.03271 7.79258 4.99964 7.89494 4.99964 7.99997C4.99964 8.10499 5.03271 8.20735 5.09416 8.29252C5.15562 8.3777 5.24233 8.44135 5.342 8.47447L5.6175 8.56597C5.69122 8.5905 5.7582 8.63188 5.81314 8.68682C5.86808 8.74176 5.90946 8.80875 5.934 8.88247L6.0255 9.15797C6.05861 9.25764 6.12227 9.34435 6.20744 9.4058C6.29261 9.46725 6.39497 9.50033 6.5 9.50033C6.60503 9.50033 6.70739 9.46725 6.79256 9.4058C6.87773 9.34435 6.94139 9.25764 6.9745 9.15797L7.0665 8.88247C7.09099 8.8088 7.13229 8.74185 7.18714 8.68691C7.24199 8.63198 7.30887 8.59057 7.3825 8.56597L7.658 8.47447C7.75767 8.44135 7.84438 8.3777 7.90584 8.29252C7.96729 8.20735 8.00036 8.10499 8.00036 7.99997C8.00036 7.89494 7.96729 7.79258 7.90584 7.70741C7.84438 7.62224 7.75767 7.55858 7.658 7.52547L7.3825 7.43347C7.30883 7.40898 7.24188 7.36767 7.18695 7.31283C7.13201 7.25798 7.0906 7.19109 7.066 7.11747L6.9745 6.84197V6.84197Z" fill="#334155"/>
</g>
<defs>
<clipPath id="clip0_39_297">
<rect width="10" height="10" fill="white"/>
</clipPath>
</defs>
</svg>
