<svg width="9" height="9" viewBox="0 0 9 9" fill="none" xmlns="http://www.w3.org/2000/svg">
<g clip-path="url(#clip0_311_8544)">
<path d="M7.65942 7.31733H6.47476V5.461C6.47476 5.01833 6.46576 4.44867 5.85742 4.44867C5.23976 4.44867 5.14542 4.93033 5.14542 5.42833V7.31733H3.96076V3.5H5.09876V4.02033H5.11409C5.27309 3.72033 5.65976 3.40367 6.23742 3.40367C7.43776 3.40367 7.65976 4.19367 7.65976 5.222V7.31733H7.65942ZM2.62276 2.97767C2.24142 2.97767 1.93509 2.669 1.93509 2.28933C1.93509 1.91 2.24176 1.60167 2.62276 1.60167C3.00276 1.60167 3.31076 1.91 3.31076 2.28933C3.31076 2.669 3.00242 2.97767 2.62276 2.97767ZM3.21676 7.31733H2.02876V3.5H3.21676V7.31733ZM8.25209 0.5H1.43409C1.10776 0.5 0.843758 0.758 0.843758 1.07633V7.92367C0.843758 8.24233 1.10776 8.5 1.43409 8.5H8.25109C8.57709 8.5 8.84376 8.24233 8.84376 7.92367V1.07633C8.84376 0.758 8.57709 0.5 8.25109 0.5H8.25209Z" fill="#0A66C2"/>
</g>
<defs>
<clipPath id="clip0_311_8544">
<rect width="8" height="8" fill="white" transform="translate(0.843758 0.5)"/>
</clipPath>
</defs>
</svg>
