<svg width="8" height="9" viewBox="0 0 8 9" fill="none" xmlns="http://www.w3.org/2000/svg">
<path d="M4.39667 3.39601C4.61328 3.49943 4.8019 3.65332 4.9467 3.84476C5.0915 4.03619 5.18825 4.25958 5.22881 4.49616C5.26937 4.73274 5.25257 4.9756 5.17981 5.20433C5.10705 5.43307 4.98046 5.64101 4.81067 5.81068L3.31067 7.31067C3.02936 7.59198 2.64783 7.75002 2.25 7.75002C1.85217 7.75002 1.47064 7.59198 1.18933 7.31067C0.908029 7.02937 0.749992 6.64784 0.749992 6.25001C0.749992 5.85218 0.908029 5.47065 1.18933 5.18934L1.775 4.60368M6.225 4.39634L6.81067 3.81068C7.09197 3.52937 7.25001 3.14784 7.25001 2.75001C7.25001 2.35218 7.09197 1.97065 6.81067 1.68934C6.52936 1.40804 6.14783 1.25 5.75 1.25C5.35217 1.25 4.97064 1.40804 4.68933 1.68934L3.18933 3.18934C3.01955 3.35901 2.89296 3.56695 2.8202 3.79568C2.74743 4.02442 2.73063 4.26728 2.77119 4.50386C2.81175 4.74044 2.9085 4.96383 3.0533 5.15526C3.1981 5.3467 3.38673 5.50059 3.60333 5.60401" stroke="#334155" stroke-width="0.5" stroke-linecap="round" stroke-linejoin="round"/>
</svg>
