<svg width="9" height="9" viewBox="0 0 9 9" fill="none" xmlns="http://www.w3.org/2000/svg">
<g clip-path="url(#clip0_311_8556)">
<path d="M4.53125 0.598999C2.32125 0.598999 0.53125 2.39 0.53125 4.599C0.53125 6.36667 1.67725 7.86566 3.26625 8.394C3.46625 8.43166 3.53958 8.308 3.53958 8.20166C3.53958 8.10666 3.53625 7.855 3.53458 7.52167C2.42192 7.763 2.18725 6.985 2.18725 6.985C2.00525 6.52333 1.74225 6.4 1.74225 6.4C1.37992 6.152 1.77025 6.157 1.77025 6.157C2.17192 6.185 2.38292 6.569 2.38292 6.569C2.73958 7.18067 3.31925 7.004 3.54792 6.90166C3.58392 6.643 3.68692 6.46667 3.80125 6.36667C2.91292 6.26667 1.97925 5.92267 1.97925 4.39C1.97925 3.95333 2.13425 3.59667 2.39092 3.31667C2.34592 3.21567 2.21092 2.809 2.42592 2.258C2.42592 2.258 2.76092 2.15067 3.52592 2.668C3.84592 2.579 4.18592 2.535 4.52592 2.533C4.86592 2.535 5.20592 2.579 5.52592 2.668C6.28592 2.15067 6.62092 2.258 6.62092 2.258C6.83592 2.809 6.70092 3.21567 6.66092 3.31667C6.91592 3.59667 7.07092 3.95333 7.07092 4.39C7.07092 5.92667 6.13592 6.265 5.24592 6.36333C5.38592 6.48333 5.51592 6.72866 5.51592 7.10333C5.51592 7.63866 5.51092 8.06867 5.51092 8.19867C5.51092 8.30367 5.58092 8.42867 5.78592 8.38867C7.38625 7.864 8.53125 6.364 8.53125 4.599C8.53125 2.39 6.74025 0.598999 4.53125 0.598999" fill="#222222"/>
</g>
<defs>
<clipPath id="clip0_311_8556">
<rect width="8" height="8" fill="white" transform="translate(0.53125 0.5)"/>
</clipPath>
</defs>
</svg>
