<svg width="9" height="9" viewBox="0 0 9 9" fill="none" xmlns="http://www.w3.org/2000/svg">
<g clip-path="url(#clip0_311_8550)">
<path d="M5.75275 3.49367H4.22342V0.5H5.75275C6.57809 0.5 7.24942 1.17133 7.24942 1.99667C7.24942 2.822 6.57809 3.49367 5.75275 3.49367V3.49367ZM4.71375 3.00333H5.75275C6.30775 3.00333 6.75909 2.55167 6.75909 1.997C6.75909 1.44233 6.30742 0.990667 5.75275 0.990667H4.71375V3.00333V3.00333ZM4.71375 3.49367H3.18475C2.35942 3.49367 1.68809 2.82233 1.68809 1.997C1.68809 1.17167 2.35942 0.5 3.18475 0.5H4.71409V3.49367H4.71375ZM3.18475 0.990333C2.62975 0.990333 2.17842 1.442 2.17842 1.99667C2.17842 2.55133 2.62975 3.00333 3.18475 3.00333H4.22375V0.990333H3.18475ZM4.71375 5.99667H3.18475C2.35942 5.99667 1.68809 5.32533 1.68809 4.5C1.68809 3.67467 2.35942 3.00333 3.18475 3.00333H4.71409V5.99667H4.71375ZM3.18475 3.49367C2.62975 3.49367 2.17842 3.94533 2.17842 4.5C2.17842 5.05467 2.63009 5.50633 3.18475 5.50633H4.22375V3.49367H3.18475ZM3.19275 8.5C2.36309 8.5 1.68775 7.82867 1.68775 7.00333C1.68775 6.178 2.35909 5.50667 3.18442 5.50667H4.71375V6.987C4.71375 7.82133 4.03142 8.5 3.19275 8.5V8.5ZM3.18475 5.99667C2.91796 5.99702 2.6622 6.10316 2.47356 6.2918C2.28491 6.48045 2.17877 6.73621 2.17842 7.003C2.17842 7.558 2.63342 8.00933 3.19309 8.00933C3.76142 8.00933 4.22409 7.55067 4.22409 6.98667V5.99667H3.18475V5.99667ZM5.75275 5.99667H5.72009C4.89475 5.99667 4.22342 5.32533 4.22342 4.5C4.22342 3.67467 4.89475 3.00333 5.72009 3.00333H5.75275C6.57809 3.00333 7.24942 3.67467 7.24942 4.5C7.24942 5.32533 6.57809 5.99667 5.75275 5.99667V5.99667ZM5.72042 3.49367C5.16542 3.49367 4.71409 3.94533 4.71409 4.5C4.71409 5.05467 5.16575 5.50633 5.72042 5.50633H5.75308C6.30808 5.50633 6.75942 5.05467 6.75942 4.5C6.75942 3.94533 6.30775 3.49367 5.75308 3.49367H5.72042V3.49367Z" fill="#F24E1E"/>
</g>
<defs>
<clipPath id="clip0_311_8550">
<rect width="8" height="8" fill="white" transform="translate(0.46875 0.5)"/>
</clipPath>
</defs>
</svg>
