<svg width="8" height="9" viewBox="0 0 8 9" fill="none" xmlns="http://www.w3.org/2000/svg">
<path d="M4.39666 3.39613C4.61327 3.49955 4.8019 3.65344 4.9467 3.84488C5.0915 4.03631 5.18824 4.2597 5.2288 4.49628C5.26937 4.73286 5.25256 4.97572 5.1798 5.20446C5.10704 5.43319 4.98045 5.64113 4.81066 5.8108L3.31066 7.3108C3.02935 7.5921 2.64782 7.75014 2.24999 7.75014C1.85217 7.75014 1.47063 7.5921 1.18933 7.3108C0.908021 7.02949 0.749985 6.64796 0.749985 6.25013C0.749985 5.8523 0.908021 5.47077 1.18933 5.18946L1.77499 4.6038M6.22499 4.39646L6.81066 3.8108C7.09197 3.52949 7.25 3.14796 7.25 2.75013C7.25 2.3523 7.09197 1.97077 6.81066 1.68946C6.52935 1.40816 6.14782 1.25012 5.74999 1.25012C5.35217 1.25012 4.97063 1.40816 4.68933 1.68946L3.18933 3.18946C3.01954 3.35913 2.89295 3.56707 2.82019 3.79581C2.74743 4.02454 2.73062 4.2674 2.77118 4.50398C2.81175 4.74056 2.90849 4.96395 3.05329 5.15539C3.19809 5.34682 3.38672 5.50071 3.60333 5.60413" stroke="#334155" stroke-width="0.5" stroke-linecap="round" stroke-linejoin="round"/>
</svg>
