<svg width="6" height="7" viewBox="0 0 6 7" fill="none" xmlns="http://www.w3.org/2000/svg">
<path fill-rule="evenodd" clip-rule="evenodd" d="M2.87237 6.97158L2.8736 6.972C2.95471 7.0074 3 6.99917 3 6.99917C3 6.99917 3.04529 7.0074 3.12681 6.972L3.12763 6.97158L3.1301 6.97035L3.13751 6.96706C3.17659 6.9489 3.21517 6.92968 3.2532 6.90942C3.32978 6.86989 3.43683 6.8106 3.56487 6.73114C3.82014 6.57304 4.1598 6.33343 4.50112 6.00446C5.18292 5.34737 5.88201 4.32013 5.88201 2.88201C5.88201 2.50354 5.80747 2.12877 5.66263 1.77911C5.5178 1.42945 5.30551 1.11174 5.03789 0.844121C4.77027 0.576502 4.45256 0.364215 4.1029 0.21938C3.75324 0.0745454 3.37847 0 3 0C2.62153 0 2.24676 0.0745454 1.8971 0.21938C1.54744 0.364215 1.22973 0.576502 0.96211 0.844121C0.694491 1.11174 0.482203 1.42945 0.337369 1.77911C0.192534 2.12877 0.117989 2.50354 0.117989 2.88201C0.117989 4.31972 0.817082 5.34737 1.4993 6.00446C1.78492 6.2788 2.09859 6.52237 2.43513 6.73114C2.56547 6.81208 2.69957 6.88682 2.83696 6.95512L2.86249 6.96706L2.8699 6.97035L2.87237 6.97158ZM3 3.80837C3.24569 3.80837 3.48131 3.71077 3.65504 3.53705C3.82876 3.36332 3.92636 3.1277 3.92636 2.88201C3.92636 2.63632 3.82876 2.4007 3.65504 2.22698C3.48131 2.05325 3.24569 1.95565 3 1.95565C2.75431 1.95565 2.51869 2.05325 2.34496 2.22698C2.17124 2.4007 2.07364 2.63632 2.07364 2.88201C2.07364 3.1277 2.17124 3.36332 2.34496 3.53705C2.51869 3.71077 2.75431 3.80837 3 3.80837V3.80837Z" fill="#334155"/>
</svg>
