<svg width="9" height="9" viewBox="0 0 9 9" fill="none" xmlns="http://www.w3.org/2000/svg">
<path d="M4.46875 8.49963C5.35542 8.49958 6.21696 8.20506 6.9181 7.66231C7.61924 7.11956 8.12027 6.35932 8.34253 5.50097M4.46875 8.49963C3.58209 8.49958 2.72055 8.20506 2.01941 7.66231C1.31826 7.11956 0.817231 6.35932 0.594974 5.50097M4.46875 8.49963C5.5732 8.49963 6.46875 6.70852 6.46875 4.49963C6.46875 2.29075 5.5732 0.499634 4.46875 0.499634M4.46875 8.49963C3.36431 8.49963 2.46875 6.70852 2.46875 4.49963C2.46875 2.29075 3.36431 0.499634 4.46875 0.499634M4.46875 0.499634C5.17819 0.499338 5.87494 0.687793 6.4875 1.04566C7.10007 1.40353 7.60639 1.91793 7.95453 2.53608M4.46875 0.499634C3.75931 0.499338 3.06256 0.687793 2.45 1.04566C1.83744 1.40353 1.33111 1.91793 0.982974 2.53608M7.95453 2.53608C6.98683 3.37427 5.74899 3.83481 4.46875 3.83297C3.13631 3.83297 1.91764 3.34408 0.982974 2.53608M7.95453 2.53608C8.29269 3.13518 8.46985 3.81168 8.46875 4.49963C8.46875 4.84541 8.42475 5.18097 8.34253 5.50097M8.34253 5.50097C7.15727 6.15803 5.82395 6.50176 4.46875 6.49963C3.06342 6.49963 1.74297 6.13741 0.594974 5.50097M0.594974 5.50097C0.510861 5.17384 0.468451 4.8374 0.468752 4.49963C0.468752 3.7863 0.655418 3.11608 0.982974 2.53608" stroke="#7C3AED" stroke-width="0.5" stroke-linecap="round" stroke-linejoin="round"/>
</svg>
